<svg xmlns="http://www.w3.org/2000/svg" version="1.1" xmlns:xlink="http://www.w3.org/1999/xlink" width="1500" height="160" viewBox="0 0 1500 160"><svg xml:space="preserve" width="1500" height="160" data-version="2" data-id="lg_3736SFmKAAovcfZkHZ" viewBox="0 0 546 160" x="0" y="0"><rect width="100%" height="100%" fill="transparent"></rect><rect width="510" height="90.4" x="-255" y="-45.2" fill="none" rx="0" ry="0" transform="translate(290.31 113.92)"></rect><path fill="#fff" d="M55.52 140.61h-.39V82.02l7.42-3.52h.39v46.68q5.2-1.64 10.28-4.92l-5.98-8.56 6.88-3.28h.39l4.92 7.07q5.9-5.74 5.9-13.59 0-6.88-6.02-12.35-5.15-4.6-15.94-6.79l8.95-4.26h.39q7.7 1.52 13.2 6.99 6.68 6.64 6.68 16.37 0 9.92-10.23 17.77l12.38 17.74-6.87 3.24h-.39l-11.72-16.72q-5.98 3.28-12.82 5.2v8zm82.18-12.53-16.21 12.54q-7.38-.51-11.37-3.75-4.84-3.98-4.84-11.6v-18.21l16.21-12.53q7.38.5 11.37 3.75 4.84 3.94 4.84 11.6l-24.02 19.41q.7 1.95 1.95 3.01 2.54 2.15 5.78 2.15 3.4 0 6.17-2.39 2.31-1.99 2.31-6.79l7.42-3.52h.39zm-24.61-18.2v13.67l16.8-13.63q0-4.93-2.56-7.07-2.56-2.15-5.84-2.15-3.79 0-6.09 2.38-2.31 2.38-2.31 6.8m50.59 24.57q4.1 0 6.09-2.39 2.31-2.77 2.31-6.91 0-4.76-2.54-7.03-2.43-2.15-5.86-2.15-4.1 0-6.1 2.38-2.3 2.78-2.3 6.8 0 4.88 2.54 7.15 2.46 2.15 5.86 2.15m8.4-.35-8.4 6.52q-7.27-.51-11.37-3.75-4.84-3.83-4.84-11.6v-2.93l16.21-12.54q4.92.35 8.4 1.95v-1.87q0-4.73-2.54-7.03-2.43-2.15-5.86-2.15-3.83 0-6.1 2.38l-2.15-2.19 8.25-6.36q7.38.5 11.36 3.75 4.85 3.94 4.85 11.6v27.22l-7.42 3.52h-.39zm35.74.34q3.75 0 6.07-2.39 2.33-2.38 2.33-6.79v-15.39q0-4.57-2.54-7.03-2.23-2.15-5.86-2.15-3.71 0-6.06 2.38-2.34 2.38-2.34 6.8v15.39q0 4.88 2.54 7.03t5.86 2.15m16.21-6.37-16.21 12.54q-7.39-.51-11.37-3.75-4.84-3.98-4.84-11.6v-18.21l16.21-12.53q4.96.35 8.4 1.91V82.02l7.42-3.52h.39zm39.88 4.82-10 7.73q-7.38-.51-11.37-3.75-4.84-3.95-4.84-11.6V98.04l7.42-3.51h.39v30.74q0 4.88 2.54 7.03t5.86 2.15q3.67 0 6.09-2.39 2.31-2.26 2.31-6.79V98.04l7.42-3.51h.39v30.74q0 4.88 2.54 7.03t5.86 2.15q3.67 0 6.09-2.39 2.31-2.26 2.31-6.79V98.04l7.42-3.51h.39v33.55l-16.21 12.54q-7.46-.51-11.37-3.75-2.03-1.68-3.24-3.98m44.88 7.72h-.39V98.03l7.43-3.51h.39v42.57zm7.04-62.11h.39v8.91l-7.43 3.51h-.39v-8.9zm43.43 60.56h-30.54v-.39l8.32-14.85h-8.32v-.39l2.22-4.69h8.99l9.84-17.57H329.5v-.39l2.22-4.69h29.03v.39l-12.46 22.26h12.46v.4l-2.23 4.68h-13.09l-5.7 10.16h21.76v.39zm27.03-4.61q4.11 0 6.1-2.39 2.3-2.77 2.3-6.91 0-4.76-2.54-7.03-2.42-2.15-5.86-2.15-4.1 0-6.09 2.38-2.3 2.78-2.3 6.8 0 4.88 2.53 7.15 2.47 2.15 5.86 2.15m8.4-.35-8.4 6.52q-7.26-.51-11.36-3.75-4.85-3.83-4.85-11.6v-2.93l16.21-12.54q4.93.35 8.4 1.95v-1.87q0-4.73-2.54-7.03-2.42-2.15-5.86-2.15-3.82 0-6.09 2.38l-2.15-2.19 8.24-6.36q7.39.5 11.37 3.75 4.84 3.94 4.84 11.6v27.22l-7.42 3.52h-.39zm19.92 6.52h-.39v-33.56l16.21-12.53q7.39.5 11.37 3.75 4.85 3.94 4.85 11.6l-7.43 3.51h-.39v-3.51q0-4.89-2.56-7.03-2.55-2.15-5.87-2.15-3.4 0-6.06 2.38-2.3 2.07-2.3 6.8v27.22zm56.06-6.18q3.75 0 6.07-2.39 2.33-2.38 2.33-6.79v-15.39q0-4.57-2.54-7.03-2.23-2.15-5.86-2.15-3.71 0-6.06 2.38-2.34 2.38-2.34 6.8v15.39q0 4.88 2.54 7.03t5.86 2.15m16.21-6.37-16.21 12.54q-7.38-.51-11.37-3.75-4.84-3.98-4.84-11.6v-18.21l16.21-12.53q4.96.35 8.4 1.91V82.02l7.42-3.52h.39zm44.92.01-16.21 12.54q-7.38-.51-11.37-3.75-4.84-3.95-4.84-11.6l7.42-3.52h.39v3.52q0 4.72 2.54 7.03 2.42 2.15 5.86 2.15 3.75 0 6.07-2.39 2.33-2.38 2.33-6.75 0-4.42-2.62-6.06-2.26-1.4-5.82-1.4-9.14 0-12.73-4.22-1.8-2.15-1.8-7.82l14.57-11.28q5.7.11 9.57 3.43 3.13 2.7 3.87 7.03l-7.42 3.52h-.39v-1.13q0-2.82-1.18-4.26-1.95-2.42-5.35-2.42-3.36 0-5.04 2.11-1.21 1.52-1.21 3.75 0 2.5 2.11 3.98 1.17.82 5 .82 8.4 0 12.07 3.24 4.18 3.68 4.18 13.48M38.536 15.929l-2.72-4.975-4.984-2.73 4.985-2.719L38.536.53l2.72 4.975 4.984 2.72-4.985 2.729zm-4.48-7.705 2.894 1.587 1.586 2.894 1.586-2.884 2.884-1.586-2.884-1.586-1.586-2.905-1.586 2.905zm36.966 2.256-1.885-3.45-3.44-1.885 3.44-1.875 1.885-3.45 1.875 3.45 3.45 1.875-3.45 1.884zm-2.111-5.325 1.36.741.74 1.36.753-1.36 1.36-.741-1.36-.752-.752-1.36-.742 1.36zm15.985 56.774-2.853-5.222-5.222-2.853L82.043 51l2.853-5.222L87.75 51l5.223 2.854-5.223 2.853zm-4.851-8.076 3.142 1.72 1.699 3.132 1.72-3.131 3.131-1.72-3.13-1.72-1.721-3.132-1.71 3.131zm.865-18.272a103 103 0 0 0-6.88-8.27c1.308-2.803 2.359-5.295 3.286-7.52l1.06-2.513 1.02-2.37-2.369 1.02-2.513 1.061c-2.215.927-4.717 1.978-7.52 3.286a103 103 0 0 0-8.26-6.88l-1.679-1.267.021 2.101c.03 2.37.381 6.17.968 10.506-3.986 2.122-7.426 4.264-9.311 5.799l-1.4 1.143 1.699.618c2.06.752 5.48 1.483 8.343 2.02l-57 55.413a1.78 1.78 0 0 0-.021 2.555l2.132 2.152a1.78 1.78 0 0 0 2.554-.02l55.105-56.692c.515 2.678 1.185 5.665 1.854 7.54l.618 1.71 1.154-1.411c1.524-1.875 3.677-5.325 5.81-9.301 4.325.587 8.136.927 10.495.968l2.101.02zM3.928 93.323c-.134.144-.237.103-.34 0L1.435 91.2a.247.247 0 0 1 0-.34L59.26 34.654l.34.062.205 1.143zm65.22-59.225-.721-.093-.34.639a81 81 0 0 1-4.728 8.013 102 102 0 0 1-1.854-9.012l-.134-.721-.72-.124a103 103 0 0 1-9.013-1.864 81 81 0 0 1 8.003-4.738l.649-.33-.103-.72c-.474-3.369-.804-6.438-.958-8.787a95 95 0 0 1 6.86 5.881l.514.485.64-.31a188 188 0 0 1 8.25-3.615l-.083.186c-.989 2.369-2.112 5.047-3.543 8.065l-.31.638.495.515a95 95 0 0 1 5.871 6.86c-2.338-.155-5.407-.484-8.775-.958"></path></svg></svg>